<?xml version="1.0" encoding="UTF-8"?>
<svg width="25px" height="25px" viewBox="0 0 25 25" version="1.1" xmlns="http://www.w3.org/2000/svg" xmlns:xlink="http://www.w3.org/1999/xlink">
    <!-- Generator: Sketch 61.2 (89653) - https://sketch.com -->
    <title>Email/Normal</title>
    <desc>Created with Sketch.</desc>
    <g id="RFI" stroke="none" stroke-width="1" fill="none" fill-rule="evenodd">
        <g id="02-Documents_Folder-Selected-V1.0" transform="translate(-1230.000000, -174.000000)">
            <g id="Files-and-Folders" transform="translate(530.000000, 151.000000)">
                <g id="Header" transform="translate(0.998932, 15.000000)">
                    <g id="Header-Actions" transform="translate(659.000000, 6.000000)">
                        <g id="Email/Normal" transform="translate(40.000000, 2.000000)">
                            <g id="Email-Icon">
                                <rect id="Rectangle" fill="#FFFFFF" opacity="0.00999999978" x="0" y="0" width="25" height="25"></rect>
                                <g id="Group" transform="translate(4.000000, 6.000000)">
                                    <path d="M14.0765625,0 L3.2484375,0 C1.45475859,0 0,1.42243062 0,3.17625 L0,9.52875 C0,11.2825694 1.45475859,12.705 3.2484375,12.705 L14.0765625,12.705 C15.8702414,12.705 17.325,11.2825694 17.325,9.52875 L17.325,3.17625 C17.325,1.42243062 15.8702414,0 14.0765625,0 Z M16.2421875,9.52875 C16.2421875,10.6965512 15.2709047,11.64625 14.0765625,11.64625 L3.2484375,11.64625 C2.05409531,11.64625 1.0828125,10.6965512 1.0828125,9.52875 L1.0828125,3.17625 C1.0828125,2.00844875 2.05409531,1.05875 3.2484375,1.05875 L14.0765625,1.05875 C15.2709047,1.05875 16.2421875,2.00844875 16.2421875,3.17625 L16.2421875,9.52875 Z" id="Shape" fill="#202020" fill-rule="nonzero"></path>
                                    <path d="M14.4593367,9.15448188 L11.2780336,6.04387438 L14.4149414,3.58969188 C14.6482875,3.40652813 14.6861859,3.07355125 14.4994008,2.84539063 C14.3120742,2.61828875 13.9726125,2.58017375 13.7381836,2.76280813 L8.6625,6.73365 L3.58681641,2.76280813 C3.35292891,2.58017375 3.01238437,2.61881813 2.82559922,2.84539063 C2.63881406,3.07408063 2.67725391,3.4070575 2.91005859,3.58969188 L6.04696641,6.04387438 L2.86566328,9.15448188 C2.65397344,9.3614675 2.65397344,9.6960325 2.86566328,9.90301812 C2.9712375,10.0062462 3.1098375,10.058125 3.2484375,10.058125 C3.3870375,10.058125 3.5256375,10.0062462 3.63121172,9.90301812 L6.87964922,6.72676812 C6.88614609,6.72041563 6.88831172,6.712475 6.89372578,6.7061225 L8.32412109,7.82469188 C8.42319844,7.90198063 8.54284922,7.940625 8.6625,7.940625 C8.78215078,7.940625 8.90180156,7.90198063 9.00087891,7.82469188 L10.4312742,6.7061225 C10.4372297,6.712475 10.4393953,6.72041563 10.4453508,6.72676812 L13.6937883,9.90301812 C13.7993625,10.0062462 13.9379625,10.058125 14.0765625,10.058125 C14.2151625,10.058125 14.3537625,10.0062462 14.4593367,9.90301812 C14.6710266,9.6960325 14.6710266,9.3614675 14.4593367,9.15448188 Z" id="Path" fill="#7B858C"></path>
                                </g>
                            </g>
                        </g>
                    </g>
                </g>
            </g>
        </g>
    </g>
</svg>