<?xml version="1.0" encoding="UTF-8"?>
<svg width="25px" height="22px" viewBox="0 0 25 22" version="1.1" xmlns="http://www.w3.org/2000/svg" xmlns:xlink="http://www.w3.org/1999/xlink">
    <!-- Generator: Sketch 61 (89581) - https://sketch.com -->
    <title>Eye/hide</title>
    <desc>Created with Sketch.</desc>
    <g id="RFI" stroke="none" stroke-width="1" fill="none" fill-rule="evenodd">
        <g id="01_02-Login_Show-Password" transform="translate(-885.000000, -471.000000)" fill="#C3C5C8">
            <g id="Login" transform="translate(470.000000, 266.000000)">
                <g id="Group-2" transform="translate(50.000000, 204.000000)">
                    <g id="Eye/hide" transform="translate(365.000000, 1.000000)">
                        <g id="hide">
                            <g fill-rule="nonzero">
                                <path d="M24.26565,11.317 L24.4829,10.94145 L24.26565,10.5659 C23.06695,8.4939 21.34335,6.75605 19.2811,5.54035 C17.15745,4.28845 14.72525,3.62635 12.24705,3.62535 C12.2452,3.62535 12.24335,3.6253 12.24145,3.6253 C10.43535,3.62605 8.6593,3.9761 7.00805,4.6474 L2.45448071,0.478748362 L1.39383071,1.53939836 L5.57035,5.331 C5.44655,5.3989 5.3236,5.46855 5.2018,5.54035 C3.13955,6.75605 1.4159,8.49385 0.21725,10.5659 L0,10.94145 L0.21725,11.317 C1.41595,13.389 3.13955,15.12685 5.2018,16.34255 C7.32545,17.59445 9.75765,18.25655 12.23585,18.25755 C12.24335,18.2576 12.24515,18.25755 12.24705,18.25755 C14.04755,18.25685 15.8236,17.9068 17.47485,17.2355 L21.6803,21.1081314 L22.74095,20.0474814 L18.91255,16.5519 C19.03635,16.484 19.1593,16.41435 19.2811,16.34255 C21.34335,15.12685 23.067,13.38905 24.26565,11.317 Z M22.74095,10.94145 C21.59395,12.7708 20.0005,14.24295 18.1514,15.24865 C19.03505,14.03945 19.5576,12.55045 19.5576,10.94145 C19.5576,9.33245 19.0351,7.84345 18.1514,6.63425 C20.0005,7.63995 21.59395,9.1121 22.74095,10.94145 Z M12.2361,16.7576 C9.0315,16.75465 6.42525,14.1467 6.42525,10.94145 C6.42525,9.6077 6.8768,8.37765 7.6347,7.39535 L10.02545,9.7861 C9.8444,10.1319 9.7414,10.52475 9.7414,10.9414 C9.7414,12.3199 10.8629,13.4414 12.2414,13.4414 C12.65805,13.4414 13.0509,13.3384 13.3967,13.15735 L15.78745,15.5481 C14.8065,16.30495 13.5784,16.75625 12.2467,16.75745 C12.23965,16.7576 12.2379,16.7576 12.2361,16.7576 Z M12.24145,5.1253 C15.4514,5.12825 18.05765,7.7362 18.05765,10.94145 C18.05765,12.2752 17.6061,13.50525 16.8482,14.48755 L14.45745,12.0968 C14.6385,11.751 14.7415,11.35815 14.7415,10.9415 C14.7415,9.563 13.62,8.4415 12.2415,8.4415 C11.82485,8.4415 11.432,8.5445 11.0862,8.72555 L8.69545,6.3348 C9.6764,5.57795 10.9045,5.12665 12.2362,5.12545 C12.2379,5.1253 12.23965,5.1253 12.24145,5.1253 Z M1.74195,10.94145 C2.88895,9.1121 4.4824,7.63995 6.3315,6.63425 C5.44785,7.84345 4.9253,9.33245 4.9253,10.94145 C4.9253,12.55045 5.4478,14.03945 6.3315,15.24865 C4.4824,14.24295 2.88895,12.7708 1.74195,10.94145 Z" id="Shape"></path>
                            </g>
                        </g>
                    </g>
                </g>
            </g>
        </g>
    </g>
</svg>