<?xml version="1.0" encoding="UTF-8"?>
<svg width="17px" height="19px" viewBox="0 0 17 19" version="1.1" xmlns="http://www.w3.org/2000/svg" xmlns:xlink="http://www.w3.org/1999/xlink">
    <!-- Generator: Sketch 61 (89581) - https://sketch.com -->
    <title>password</title>
    <desc>Created with Sketch.</desc>
    <g id="RFI" stroke="none" stroke-width="1" fill="none" fill-rule="evenodd">
        <g id="01_01-Login_Hide-Password" transform="translate(-529.000000, -473.000000)" fill="#C3C5C8">
            <g id="Login" transform="translate(470.000000, 266.000000)">
                <g id="Group-2" transform="translate(50.000000, 207.000000)">
                    <g id="password" transform="translate(9.000000, 0.000000)">
                        <g>
                            <circle id="Oval" fill-rule="nonzero" cx="12.168" cy="12.456" r="1"></circle>
                            <path d="M15.408,13.032 C15.805656,13.032 16.128,12.709656 16.128,12.312 L16.128,9.648 C16.128,8.059968 14.836032,6.768 13.248,6.768 L12.382668,6.768 L12.382668,4.228776 C12.382668,1.89702 10.444716,0 8.062668,0 C5.68062,0 3.742668,1.89702 3.742668,4.228776 L3.742668,6.768 L2.88,6.768 C1.291968,6.768 0,8.059968 0,9.648 L0,15.552 C0,17.140032 1.291968,18.432 2.88,18.432 L13.248,18.432 C14.836032,18.432 16.128,17.140032 16.128,15.552 C16.128,15.154344 15.805656,14.832 15.408,14.832 C15.010344,14.832 14.688,15.154344 14.688,15.552 C14.688,16.346016 14.042016,16.992 13.248,16.992 L2.88,16.992 C2.085984,16.992 1.44,16.346016 1.44,15.552 L1.44,9.648 C1.44,8.853984 2.085984,8.208 2.88,8.208 L13.248,8.208 C14.042016,8.208 14.688,8.853984 14.688,9.648 L14.688,12.312 C14.688,12.709656 15.010344,13.032 15.408,13.032 Z M10.942668,6.768 L5.182668,6.768 L5.182668,4.228776 C5.182668,2.691036 6.474636,1.44 8.062668,1.44 C9.6507,1.44 10.942668,2.691036 10.942668,4.228776 L10.942668,6.768 Z" id="Shape" fill-rule="nonzero"></path>
                            <circle id="Oval" fill-rule="nonzero" cx="6.732" cy="12.456" r="1"></circle>
                            <circle id="Oval" fill-rule="nonzero" cx="4.032" cy="12.456" r="1"></circle>
                            <circle id="Oval" fill-rule="nonzero" cx="9.432" cy="12.456" r="1"></circle>
                        </g>
                    </g>
                </g>
            </g>
        </g>
    </g>
</svg>