<?xml version="1.0" encoding="UTF-8"?>
<svg width="25px" height="15px" viewBox="0 0 25 15" version="1.1" xmlns="http://www.w3.org/2000/svg" xmlns:xlink="http://www.w3.org/1999/xlink">
    <!-- Generator: Sketch 61 (89581) - https://sketch.com -->
    <title>Eye/show</title>
    <desc>Created with Sketch.</desc>
    <g id="RFI" stroke="none" stroke-width="1" fill="none" fill-rule="evenodd">
        <g id="01_01-Login_Hide-Password" transform="translate(-885.000000, -476.000000)" fill="#C3C5C8">
            <g id="Login" transform="translate(470.000000, 266.000000)">
                <g id="Group-2" transform="translate(50.000000, 207.000000)">
                    <g id="Eye/show" transform="translate(365.000000, 3.000000)">
                        <g id="show">
                            <path d="M9.74145,7.34145 C9.74145,8.71995 10.86295,9.84145 12.24145,9.84145 C13.61995,9.84145 14.74145,8.71995 14.74145,7.34145 C14.74145,5.96295 13.61995,4.84145 12.24145,4.84145 C10.86295,4.84145 9.74145,5.96295 9.74145,7.34145 Z" id="Path" fill-rule="nonzero"></path>
                            <path d="M24.26565,6.9659 C23.06695,4.8939 21.34335,3.15605 19.2811,1.94035 C17.15745,0.68845 14.72525,0.02635 12.24705,0.0253 C12.2452,0.0253 12.24335,0.0253 12.24145,0.0253 C12.23955,0.0253 12.23775,0.0253 12.23585,0.0253 C9.75765,0.02635 7.32545,0.68845 5.2018,1.94035 C3.13955,3.15605 1.4159,4.89385 0.21725,6.9659 L0,7.34145 L0.21725,7.717 C1.41595,9.789 3.13955,11.52685 5.2018,12.74255 C7.32545,13.99445 9.75765,14.65655 12.23585,14.6576 C12.2377,14.6576 12.23955,14.6576 12.24145,14.6576 C12.24335,14.6576 12.24515,14.6576 12.24705,14.6576 C14.72525,14.65655 17.15745,13.99445 19.2811,12.74255 C21.34335,11.52685 23.067,9.78905 24.26565,7.717 L24.4829,7.34145 L24.26565,6.9659 Z M18.0576,7.34145 C18.0576,10.5467 15.45135,13.15465 12.24675,13.1576 C12.24495,13.1576 12.2432,13.1576 12.2414,13.1576 C12.2396,13.1576 12.23785,13.1576 12.23605,13.1576 C9.03145,13.15465 6.4252,10.5467 6.4252,7.34145 C6.4252,4.1362 9.03145,1.52825 12.23605,1.5253 C12.23785,1.5253 12.2396,1.5253 12.2414,1.5253 C12.2432,1.5253 12.24495,1.5253 12.24675,1.5253 C15.45135,1.52825 18.0576,4.1362 18.0576,7.34145 Z M1.74195,7.34145 C2.88895,5.5121 4.4824,4.03995 6.3315,3.03425 C5.44785,4.24345 4.9253,5.73245 4.9253,7.34145 C4.9253,8.95045 5.4478,10.43945 6.3315,11.64865 C4.4824,10.64295 2.88895,9.1708 1.74195,7.34145 Z M18.15145,11.64865 C19.0351,10.43945 19.55765,8.95045 19.55765,7.34145 C19.55765,5.73245 19.03515,4.24345 18.15145,3.03425 C20.0005,4.03995 21.59395,5.5121 22.741,7.34145 C21.59395,9.1708 20.0005,10.64295 18.15145,11.64865 Z" id="Shape" fill-rule="nonzero"></path>
                        </g>
                    </g>
                </g>
            </g>
        </g>
    </g>
</svg>